<svg fill="none" height="20" viewBox="0 0 20 20" width="20" xmlns="http://www.w3.org/2000/svg"><g fill="#4287f5" opacity=".8"><path d="m11.5929 9.97187c-.3586.38423-.3586.98043 0 1.36463l6.176 6.6172c.6193.6635 1.7311.2253 1.7311-.6824v-13.23425c0-.90763-1.1118-1.34584-1.7311-.68232z"/><path d="m4.43685 9.97187c-.35859.38423-.35859.98043 0 1.36463l6.17605 6.6172c.6192.6635 1.731.2253 1.731-.6824v-13.23425c0-.90763-1.1118-1.34584-1.731-.68232z"/></g><g clip-rule="evenodd" fill="#000" fill-rule="evenodd"><path d="m16.5999 16.6163-6.176-6.61714 6.176-6.61714zm-6.90707-5.9348c-.35859-.3842-.35859-.98045 0-1.36466l6.17597-6.61714c.6193-.66352 1.7311-.2253 1.7311.68232v13.23428c0 .9076-1.1118 1.3458-1.7311.6823z"/><path d="m9.44383 16.6163-6.17601-6.61714 6.17601-6.61714zm-6.90706-5.9348c-.3586-.3842-.3586-.98045 0-1.36466l6.176-6.61714c.61929-.66352 1.73103-.2253 1.73103.68232v13.23428c0 .9076-1.11174 1.3458-1.73103.6823z"/></g></svg>